<svg xmlns="http://www.w3.org/2000/svg" viewBox="0 0 1920 1920"><path fill-rule="evenodd" d="M1588 1134c-110-42-224-72-339-91h-6a508 508 0 0 0 225-422v-25c-28 18-64 42-115 58a395 395 0 0 1-788-33v-61l3-1a341 341 0 0 0 99-32l15-9a663 663 0 0 0 21-12l10-7 14-9c35-21 68-38 129-38 53 0 85 12 115 29l30 18c35 23 74 48 133 59l2 1c20 4 43 6 69 6h1c104-1 158-35 205-66l56-34v-1l-4-21-2-16a495 495 0 0 0-231-349 505 505 0 0 0-749 261c-19 53-29 109-29 169v113a507 507 0 0 0 226 421h-5c-112 19-222 47-329 87a353 353 0 0 0-231 332v208l27 17a1556 1556 0 0 0 1640 0l27-17v-208c0-145-88-276-219-327"/></svg>