<svg data-name="Layer 2" xmlns="http://www.w3.org/2000/svg" viewBox="0 0 167.1 194.8"><g data-name="Layer 10"><path d="M2.9 6A25 25 0 0 1 21 14a46 46 0 0 1 11 20c2.4 8 3.7 16.5 5.5 24.7s3.7 16.7 6 25a192.7 192.7 0 0 0 19.6 47c8 13.1 18.2 24.9 30.5 34.2a87.7 87.7 0 0 0 46 18.3c1.7.1 3-1.5 3-3 0-1.7-1.3-2.9-3-3-14.3-1.2-28-7-39.8-15.2s-22.2-19.6-30-32c-9-14.2-15.2-30-20-46-2.3-8.3-4.4-16.6-6.1-25s-3.2-16.7-5.4-25-5.5-15.8-11-22.1A33.5 33.5 0 0 0 8.7.5C6.7 0 4.8-.1 2.9 0-1 .1-1 6.1 2.9 6Z" style="fill:#7c7530"/><path style="stroke:#7c7530;stroke-miterlimit:10;fill:#7c7530" d="m135.2 194.2 6.1-28 24.7 19.6-30.8 8.4z"/></g></svg>