<svg data-name="Layer 2" xmlns="http://www.w3.org/2000/svg" viewBox="0 0 167.1 194.8"><g data-name="Layer 10"><path d="M164.2 0c-7.8-.2-15 3.1-20.7 8.1a47.3 47.3 0 0 0-12.9 20.1c-2.8 8-4.2 16.3-5.9 24.6s-3.6 16.7-5.8 25c-4.3 16.2-10 32.2-18.4 46.8-7.5 13.2-17.2 25-29.2 34.4a85.6 85.6 0 0 1-44 18.2c-1.5.1-3 1.3-3 3 0 1.5 1.5 3.1 3 3 15-1.3 29.4-6.8 41.8-15.2s23.1-19.5 31.5-32c9.4-14.2 16-30 21.1-46.2 2.5-8.2 4.7-16.5 6.5-24.8s3.3-16.8 5.3-25a58.7 58.7 0 0 1 9.3-22.4 29 29 0 0 1 16.5-11.2c1.6-.3 3-.4 4.9-.4 3.8.1 3.8-5.9 0-6Z" style="fill:#7c7530"/><path style="stroke:#7c7530;stroke-miterlimit:10;fill:#7c7530" d="m31.8 194.2-6-28-24.7 19.6 30.7 8.4z"/></g></svg>