<?xml version="1.0" encoding="UTF-8"?>
<svg xmlns="http://www.w3.org/2000/svg" xmlns:xlink="http://www.w3.org/1999/xlink" viewBox="0 0 1500 843.12">
  <defs>
    <style>
      .cls-1 {
        fill: #f8931f;
      }

      .cls-2 {
        fill: #0070bc;
      }

      .cls-3 {
        fill: #fff;
      }

      .cls-4, .cls-5 {
        fill: #f68121;
      }

      .cls-6 {
        fill: #f21a27;
      }

      .cls-7 {
        fill: #fdee1f;
      }

      .cls-8 {
        fill: #8300e0;
      }

      .cls-9, .cls-10 {
        fill: #333;
      }

      .cls-11 {
        fill: #8cc63f;
      }

      .cls-12 {
        fill: #c9661c;
      }

      .cls-13 {
        fill: gray;
      }

      .cls-14 {
        fill: #29aae3;
      }

      .cls-15 {
        fill: url(#radial-gradient);
        opacity: .06;
      }

      .cls-5 {
        font-size: 73px;
        letter-spacing: 0em;
        stroke: #f68121;
        stroke-width: 2px;
      }

      .cls-5, .cls-10 {
        font-family: GeomaRegularDemo, 'Geoma Regular Demo';
        stroke-miterlimit: 10;
      }

      .cls-16 {
        filter: url(#drop-shadow-1);
      }

      .cls-10 {
        font-size: 72px;
        letter-spacing: .06em;
        stroke: #333;
        stroke-width: 3px;
      }
    </style>
    <radialGradient id="radial-gradient" cx="732.55" cy="667.99" fx="732.55" fy="667.99" r="267.61" gradientTransform="translate(212.66 631.24) scale(.75 .07)" gradientUnits="userSpaceOnUse">
      <stop offset="0" stop-color="#000"/>
      <stop offset="1" stop-color="#000" stop-opacity="0"/>
    </radialGradient>
    <filter id="drop-shadow-1" filterUnits="userSpaceOnUse">
      <feOffset dx="4" dy="4"/>
      <feGaussianBlur result="blur" stdDeviation="2"/>
      <feFlood flood-color="#000" flood-opacity=".05"/>
      <feComposite in2="blur" operator="in"/>
      <feComposite in="SourceGraphic"/>
    </filter>
  </defs>
  <g id="Veda_Yogshala" data-name="Veda Yogshala">
    <ellipse id="Shadow" class="cls-15" cx="758.63" cy="679.94" rx="219.63" ry="22.01"/>
  </g>
  <g id="Yoga">
    <g>
      <path class="cls-13" d="M548.22,643.96c.54,0,1.01,.34,1.41,1.04l6.05,9.89,6.09-9.89c.44-.71,.91-1.04,1.48-1.04,.81,0,1.28,.54,1.28,1.21,0,.24-.07,.5-.24,.77l-7.3,11.64v8.91c0,.77-.64,1.41-1.41,1.41s-1.45-.64-1.45-1.41v-8.91l-7.13-11.43c-.17-.24-.24-.5-.24-.81,0-.77,.61-1.38,1.45-1.38Z"/>
      <path class="cls-13" d="M576.2,664.61c-2.29-2.25-3.43-5.18-3.43-8.71s1.14-6.32,3.4-8.64c2.25-2.32,5.15-3.46,8.61-3.46s6.32,1.14,8.61,3.4c2.25,2.25,3.4,5.18,3.4,8.71s-1.14,6.36-3.43,8.64c-2.29,2.32-5.15,3.46-8.58,3.46s-6.32-1.14-8.58-3.4Zm2.15-15.47c-1.72,1.78-2.56,4.04-2.56,6.76s.87,4.91,2.59,6.69c1.72,1.82,3.87,2.72,6.39,2.72,2.66,0,4.81-.91,6.49-2.69,1.65-1.78,2.49-4.04,2.49-6.73s-.87-4.98-2.59-6.76c-1.71-1.78-3.87-2.66-6.39-2.66s-4.71,.88-6.42,2.66Z"/>
      <path class="cls-13" d="M612.36,649.07c-1.65,1.71-2.46,4-2.46,6.83s.84,5.11,2.49,6.83c1.65,1.71,3.8,2.59,6.49,2.59,2.25,0,4.81-.87,6.05-2.08v-4.84h-5.04c-.71,0-1.31-.64-1.31-1.34s.61-1.35,1.31-1.35h6.32c.77,0,1.41,.64,1.41,1.41v6.73c0,.64-.27,1.18-.81,1.58-2.12,1.61-5.31,2.59-8,2.59-3.67,0-6.56-1.11-8.71-3.29-2.15-2.19-3.23-5.15-3.23-8.81,0-3.46,1.08-6.32,3.19-8.64,2.12-2.32,4.91-3.46,8.37-3.46,2.49,0,4.64,.54,6.46,1.61,.47,.27,.71,.64,.71,1.11,0,.24-.07,.47-.2,.71-.24,.4-.61,.61-1.11,.61-.3,0-.57-.07-.87-.24-1.41-.74-2.96-1.11-4.64-1.11-2.66,0-4.78,.88-6.42,2.59Z"/>
      <path class="cls-13" d="M653.19,660.54h-10.73l-2.69,6.42c-.24,.64-.67,.94-1.28,.94-.84,0-1.35-.61-1.35-1.31,0-.13,.03-.34,.13-.61l9.01-20.88c.34-.77,.87-1.14,1.65-1.14s1.31,.37,1.61,1.14l8.98,20.78c.07,.2,.1,.4,.1,.57,0,.77-.54,1.45-1.38,1.45-.64,0-1.08-.3-1.35-.94l-2.72-6.42Zm-1.11-2.69l-4.24-10.06-4.24,10.06h8.48Z"/>
      <path class="cls-13" d="M700.65,649.85c.9,.87,1.35,2.01,1.35,3.45v.08c-.09,1.43-.62,2.55-1.61,3.35-.43,.35-.93,.62-1.51,.82,.9,1.19,1.29,2.62,1.17,4.29-.14,2.07-.99,3.86-2.53,5.37-1.7,1.66-3.84,2.5-6.42,2.5-2.44,0-4.55-.89-6.34-2.68-1.78-1.78-2.68-3.9-2.68-6.34,0-1.47,.32-2.84,.95-4.11,.62-1.26,1.49-2.3,2.59-3.12-.9-.56-1.61-1.3-2.15-2.23-.55-.96-.82-1.98-.82-3.04,0-1.71,.58-3.16,1.74-4.37,1.17-1.2,2.58-1.81,4.24-1.81,2.16,0,3.95,1,5.37,2.99,.2,.27,.27,.58,.21,.92-.05,.35-.22,.62-.51,.82-.27,.2-.59,.27-.94,.21-.34-.05-.61-.22-.8-.51-.92-1.29-2.03-1.94-3.33-1.94-.96,0-1.78,.36-2.46,1.08-.68,.71-1.02,1.58-1.02,2.59,0,.96,.35,1.82,1.05,2.56,.71,.74,1.52,1.12,2.43,1.12h.94c.33,0,.61,.11,.85,.33s.37,.49,.39,.82c.03,.32-.05,.61-.26,.87-.2,.25-.46,.41-.79,.46-1.5,.24-2.74,.96-3.71,2.15-.99,1.19-1.48,2.59-1.48,4.19,0,1.74,.65,3.26,1.95,4.57,1.3,1.3,2.82,1.95,4.57,1.95,1.88,0,3.44-.58,4.66-1.74,1.09-1.05,1.7-2.32,1.81-3.79,.05-.78-.07-1.48-.36-2.1-.48-1.03-1.38-1.63-2.69-1.81h-.02s-.04-.02-.05-.02c-1.11-.22-1.89-.29-2.35-.2-.04,.01-.09,.02-.13,.03-.74,.07-1.4,.36-1.95,.87-.59,.57-.89,1.25-.89,2.05,0,.6,.21,1.11,.62,1.53s.93,.62,1.53,.62,1.14-.2,1.63-.61c.48-.41,.72-.86,.72-1.36,0-.34,.12-.63,.36-.89,.25-.24,.55-.36,.89-.36s.65,.12,.89,.36c.24,.25,.36,.55,.36,.89,0,1.19-.48,2.23-1.45,3.12-.97,.9-2.11,1.35-3.4,1.35s-2.38-.45-3.28-1.36c-.91-.91-1.36-2-1.36-3.28,0-1.38,.49-2.59,1.46-3.63,.96-1.04,2.16-1.64,3.58-1.79,.78-.14,1.86-.08,3.24,.2,1.85,.29,3.15,.12,3.91-.49,.4-.33,.63-.84,.67-1.53,0-.71-.19-1.25-.57-1.63-.33-.32-.74-.48-1.25-.48-.42,0-.78,.12-1.1,.36-.42,.32-.62,.78-.62,1.4,0,.35-.12,.65-.36,.89-.25,.24-.55,.36-.89,.36s-.65-.12-.89-.36c-.24-.24-.36-.54-.36-.89,0-1.3,.45-2.36,1.35-3.17,.81-.72,1.77-1.08,2.87-1.08h1.76s.41,.39,1.23,1.18Z"/>
      <path class="cls-13" d="M735.27,646.82v19.67c0,.77-.64,1.41-1.41,1.41s-1.45-.64-1.45-1.41v-19.67h-6.93c-.71,0-1.31-.64-1.31-1.35s.61-1.34,1.31-1.34h16.71c.71,0,1.31,.64,1.31,1.34s-.61,1.35-1.31,1.35h-6.93Z"/>
      <path class="cls-13" d="M769,667.91c-.54,0-1.01-.27-1.45-.81l-6.76-8.84h-3.83v8.24c0,.77-.64,1.41-1.41,1.41s-1.45-.64-1.45-1.41v-20.95c0-.77,.64-1.41,1.41-1.41,2.39-.03,4-.07,4.91-.07,5.58,0,8.37,2.32,8.37,7,0,1.71-.5,3.16-1.48,4.34-1.01,1.18-2.22,1.95-3.63,2.32l6.25,7.9c.24,.3,.37,.64,.37,.98,0,.71-.54,1.31-1.31,1.31Zm-12.04-12.34h3.46c1.45,0,2.69-.4,3.77-1.24,1.04-.81,1.58-1.88,1.58-3.23,0-2.89-1.85-4.34-5.52-4.34-.71,0-1.82,.03-3.3,.07v8.74Z"/>
      <path class="cls-13" d="M794.8,660.54h-10.73l-2.69,6.42c-.24,.64-.67,.94-1.28,.94-.84,0-1.35-.61-1.35-1.31,0-.13,.03-.34,.13-.61l9.01-20.88c.34-.77,.87-1.14,1.65-1.14s1.31,.37,1.62,1.14l8.98,20.78c.07,.2,.1,.4,.1,.57,0,.77-.54,1.45-1.38,1.45-.64,0-1.08-.3-1.35-.94l-2.72-6.42Zm-1.11-2.69l-4.24-10.06-4.24,10.06h8.47Z"/>
      <path class="cls-13" d="M811.28,645.54c0-.77,.61-1.41,1.41-1.41,3.3-.07,4.98-.1,5.01-.1,9.42,0,13.22,5.38,13.22,11.57,0,3.53-1.18,6.42-3.5,8.71-2.35,2.29-5.68,3.43-9.99,3.43-.74,0-2.32-.03-4.74-.07-.77,0-1.41-.64-1.41-1.41v-20.72Zm2.86,19.44c2.05,.03,3.2,.07,3.4,.07,3.26,0,5.82-.88,7.63-2.62,1.82-1.72,2.72-4,2.72-6.83,0-2.66-.87-4.78-2.66-6.42-1.78-1.65-4.3-2.46-7.6-2.46-1.14,0-2.59,.1-3.5,.1v18.16Z"/>
      <path class="cls-13" d="M843.54,645.34c0-.77,.64-1.38,1.45-1.38s1.41,.6,1.41,1.38v21.15c0,.77-.64,1.41-1.41,1.41s-1.45-.64-1.45-1.41v-21.15Z"/>
      <path class="cls-13" d="M868.76,646.82v19.67c0,.77-.64,1.41-1.41,1.41s-1.45-.64-1.45-1.41v-19.67h-6.93c-.71,0-1.31-.64-1.31-1.35s.61-1.34,1.31-1.34h16.71c.71,0,1.31,.64,1.31,1.34s-.61,1.35-1.31,1.35h-6.93Z"/>
      <path class="cls-13" d="M888.27,645.34c0-.77,.64-1.38,1.45-1.38s1.41,.6,1.41,1.38v21.15c0,.77-.64,1.41-1.41,1.41s-1.45-.64-1.45-1.41v-21.15Z"/>
      <path class="cls-13" d="M907.17,664.61c-2.29-2.25-3.43-5.18-3.43-8.71s1.14-6.32,3.4-8.64c2.25-2.32,5.15-3.46,8.61-3.46s6.32,1.14,8.61,3.4c2.25,2.25,3.4,5.18,3.4,8.71s-1.14,6.36-3.43,8.64c-2.29,2.32-5.15,3.46-8.58,3.46s-6.32-1.14-8.58-3.4Zm2.15-15.47c-1.72,1.78-2.56,4.04-2.56,6.76s.88,4.91,2.59,6.69c1.71,1.82,3.87,2.72,6.39,2.72,2.66,0,4.81-.91,6.49-2.69,1.65-1.78,2.49-4.04,2.49-6.73s-.88-4.98-2.59-6.76-3.87-2.66-6.39-2.66-4.71,.88-6.42,2.66Z"/>
      <path class="cls-13" d="M956.68,662.69v-17.42c0-.71,.64-1.31,1.34-1.31s1.35,.6,1.35,1.31v21.19c0,.84-.5,1.45-1.21,1.45-.57,0-1.14-.34-1.71-1.04l-14.06-17.72v17.45c0,.71-.64,1.31-1.35,1.31s-1.34-.61-1.34-1.31v-21.05c0-.91,.47-1.58,1.31-1.58,.57,0,1.18,.4,1.82,1.21l13.86,17.52Z"/>
    </g>
  </g>
  <g id="Veda_Yogshala_Expanded" data-name="Veda Yogshala Expanded">
    <g id="lotus-leaves">
      <g id="lotus-leaves" class="cls-16">
        <g>
          <path class="cls-4" d="M633.25,359.32c52.79,44.66,115.91,47.37,116.74,47.4-1.25,1.15-121.05,111.33-262.02,.76,0,0,59.03-55.17,145.28-48.16Z"/>
          <path class="cls-3" d="M750,406.71h0s0,0,0,0h0s0,0,0,0Z"/>
          <path class="cls-12" d="M749.99,406.71h0c-.83-.02-63.94-2.73-116.74-47.39,35.11,2.85,74.72,16,116.7,47.36,.02,.02,.02,.02,.03,.03Z"/>
          <path class="cls-4" d="M698.93,287.89c5.55,70.04,49.56,117.23,51.03,118.79-41.99-31.36-81.59-44.51-116.7-47.36-32.25-27.28-60.66-70.21-68.66-137.75,0,0,78.56,2.83,134.34,66.32Z"/>
          <path class="cls-3" d="M750,406.71h0s0,0,0,0h0s0,0,0,0Z"/>
          <path class="cls-4" d="M1012.03,407.48c-140.97,110.57-260.77,.4-262.02-.76,.83-.03,63.94-2.74,116.74-47.4,86.25-7.01,145.28,48.16,145.28,48.16Z"/>
          <path class="cls-12" d="M866.75,359.32c-52.79,44.66-115.91,47.37-116.74,47.4h0c42-31.39,81.63-44.55,116.74-47.4Z"/>
          <path class="cls-4" d="M935.41,221.57c-8.01,67.54-36.41,110.47-68.66,137.75-35.12,2.85-74.74,16.01-116.74,47.39v-.02s0,0,0,0c29.34-40.33,42.22-78.28,45.48-112.14,55.94-69.96,139.92-72.99,139.92-72.99Z"/>
          <path class="cls-12" d="M750,406.71h0s-.02-.02-.03-.03c-1.47-1.56-45.48-48.75-51.03-118.79,23.79,27.07,43.44,65.19,51.07,118.82Z"/>
          <path class="cls-3" d="M749.99,406.71h0s0,0,0,0h0Z"/>
          <path class="cls-12" d="M795.49,294.55c-3.25,33.86-16.13,71.81-45.48,112.14,7.03-49.36,24.22-85.57,45.48-112.14Z"/>
          <path class="cls-4" d="M795.49,294.55c-21.25,26.56-38.45,62.77-45.48,112.14,0,0,0,0,0,0v.02h0c-7.63-53.64-27.28-91.75-51.07-118.82-3.28-41.33,6.84-90.62,46.99-143.17,0,0,58.15,60.66,49.57,149.83Z"/>
        </g>
        <g>
          <path class="cls-9" d="M801.32,453.09c-3.73,1.57-7.27,3.16-10.88,4.55-7.18,2.77-14.63,4.7-22.27,5.4-5.6,.51-11.28,.16-16.93,.19-.94,0-1.88-.01-2.82,.04-8.84,.51-17.59,.13-26.29-1.88-9.43-2.18-18.25-5.82-26.86-10.11-8.81-4.39-17.73-8.57-26.47-13.11-12.59-6.55-24.99-13.44-35.82-22.77-3.44-2.97-6.6-6.18-8.79-10.24-3.69-6.86-1.43-12.24,4.1-16.14,7.17-5.05,15.35-6.08,23.77-5.37,16.7,1.4,31.91,7.49,46.46,15.41,5.25,2.86,10.25,6.16,15.37,9.26,.15,.09,.35,.1,.57,.16,.73-2.89,1.21-5.85,2.24-8.6,1.23-3.29,3-6.38,4.4-9.61,.47-1.08,.84-2.38,.7-3.51-.78-6.29-1.5-12.6-2.7-18.81-1-5.2-2.43-10.34-4-15.41-2.33-7.54-4.88-15.02-7.47-22.48-2.04-5.86-5.45-10.94-9.55-15.53-6.08-6.81-12.33-13.48-18.44-20.27-4.83-5.36-8.21-11.6-10.73-18.33-1.78-4.73-3.71-9.41-5.29-14.2-.86-2.61-1.24-5.41-1.62-8.15-.37-2.7,.85-4.78,3.1-6.25,7.01-4.58,13.94-9.31,21.07-13.7,13.84-8.51,27.85-16.75,41.68-25.26,5.85-3.6,9.42-9.14,11.92-15.46,2.62-6.62,3.02-13.7,4.58-20.54,.54-2.34,1.18-4.66,1.64-7.01,.36-1.83,1.77-1.34,2.81-1.3,.45,.02,1.14,.87,1.26,1.45,1.35,6.25,2.67,12.51,3.87,18.78,1.47,7.65,4.03,14.87,9.82,20.25,3.51,3.26,7.73,5.82,11.84,8.35,11.05,6.8,22.27,13.32,33.31,20.13,7.45,4.59,14.7,9.48,22.05,14.24,2.57,1.67,3.68,4.16,3.13,7.03-.76,3.96-1.71,7.92-3.04,11.71-1.81,5.18-3.96,10.24-6.13,15.28-2.67,6.22-6.89,11.4-11.37,16.38-6.07,6.75-12.17,13.49-18.21,20.26-.46,.52-.75,1.31-.85,2.01-1.16,7.87-3.69,15.34-6.19,22.85-2.53,7.61-5.08,15.25-6.97,23.03-1.46,6.01-1.68,12.3-2.89,18.39-.62,3.13,.39,5.39,1.92,7.88,2.81,4.57,4.44,9.61,5.14,14.94,.05,.35,.15,.7,.29,1.31,2.61-1.6,5.05-3.08,7.48-4.59,10.33-6.42,21.23-11.68,32.77-15.52,8.87-2.95,17.98-5.04,27.4-4.73,6.9,.23,13.53,1.68,19.17,6.16,6.21,4.93,6.52,11.43,1.55,18.19-4.32,5.87-9.99,10.26-15.89,14.35-10.8,7.5-22.35,13.72-34.09,19.58-3.72,1.85-7.44,3.72-11.08,5.54l-11.79,5.75Zm9.46-4.75-62.91-242.8c-.58,.5-1.31,1.28-2.19,1.83-2.34,1.46-5.05,2.5-7.07,4.3-3.78,3.37-7.08,7.29-10.76,10.78-12.18,11.56-23.89,23.66-37.69,33.41-3.43,2.42-3.76,3.6-1.75,7.05,3.33,5.71,6.7,11.44,10.53,16.82,2.98,4.18,7.95,6.07,12.19,8.74,3.98,2.5,8.44,4.44,11.93,7.5,3.65,3.19,7.26,4.71,11.95,3.7,.12-.03,.29,.03,.37-.04,.61-.5,1.65-.95,1.72-1.53,.3-2.31,.38-4.67,.38-7,0-2.01-.55-3.82-2.22-5.22-.94-.79-1.79-1.83-2.34-2.93-1.99-4-3.99-8.01-5.67-12.14-1.25-3.08-2.11-6.33-2.93-9.55-.27-1.04-.29-2.62,.31-3.3,1.23-1.38,1.05-2.89,1.23-4.41,.3-2.58,.5-5.17,.88-7.74,.57-3.85,1.81-7.33,5.41-9.51,1.72-1.04,3.24-2.4,4.95-3.47,6.27-3.91,13.03-4.62,19.82-1.94,3.27,1.29,6.12,3.66,9.15,5.55,2.61,1.62,4.28,3.91,4.72,6.97,.57,3.88,1.04,7.77,1.56,11.66,.08,.61-.02,1.47,.34,1.79,1.94,1.72,1.57,3.91,.97,5.84-1.34,4.27-3.01,8.43-4.55,12.63-1.58,4.31-3.74,8.27-7.14,11.46-.34,.32-.53,.85-.7,1.31-1.22,3.34-1.15,6.73-.27,10.11,.14,.55,.92,1.22,1.5,1.32,3.63,.65,7.02,.34,9.5-2.92,.4-.53,1.02-.93,1.61-1.28,4.47-2.69,9.02-5.27,13.43-8.06,3.7-2.34,7.98-4.09,10.48-7.9,3.76-5.73,7.21-11.66,10.82-17.49,1.08-1.75,.77-3.27-.73-4.5-1.69-1.39-3.56-2.56-5.24-3.95-13.58-11.29-26.72-23.06-38.74-36.03-3.05-3.29-6.13-6.51-10.33-8.45-1.91-.88-3.59-2.24-5.43-3.41Z"/>
          <g>
            <circle class="cls-8" cx="749" cy="240.38" r="4.79"/>
            <circle class="cls-2" cx="749" cy="264.67" r="6.83"/>
            <circle class="cls-14" cx="749" cy="301.19" r="7.99"/>
            <circle class="cls-7" cx="749" cy="374.76" r="9.63"/>
            <circle class="cls-1" cx="749" cy="412.11" r="8.52"/>
            <circle class="cls-6" cx="749" cy="438.99" r="5.1"/>
            <circle class="cls-11" cx="749" cy="335.76" r="12.14"/>
          </g>
          <path class="cls-9" d="M910.3,469.41c.35,.1,.69,.19,1.04,.29,54.44,15.11,106.2,34.88,149.65,72.1-6.65-2.95-13.2-6.2-19.99-8.79-15.72-6-31.45-11.98-47.38-17.41-11.63-3.96-23.46-7.42-35.38-10.41-15.25-3.82-30.61-7.29-46.05-10.24-16.59-3.17-33.27-5.97-50.01-8.16-17.26-2.26-34.62-4.5-51.99-5.14-30.89-1.14-61.85-2.1-92.72-1.19-27.54,.81-55.08,3.62-82.48,6.75-19.4,2.22-38.7,5.78-57.79,9.94-22.03,4.8-44.09,9.93-65.56,16.74-21.66,6.87-42.61,15.97-63.86,24.13-2.91,1.12-5.75,2.46-8.79,3.29,46.13-38.76,100.94-58.75,158.55-73.01l9.55-2.12c86.89-18.01,173.84-19.29,260.68-4.88,0,0,26.84,3.91,42.51,8.1Z"/>
        </g>
      </g>
    </g>
  </g>
  <g id="Yogshala">
    <text class="cls-10" transform="translate(691.62 624.68)"><tspan x="0" y="0">Yogshala</tspan></text>
  </g>
  <g id="Veda_Yogshala-2" data-name="Veda Yogshala">
    <text class="cls-5" transform="translate(507.29 624.68)"><tspan x="0" y="0">Veda</tspan></text>
  </g>
</svg>