<?xml version="1.0" encoding="UTF-8"?>
<svg id="Layer_2" data-name="Layer 2" xmlns="http://www.w3.org/2000/svg" xmlns:xlink="http://www.w3.org/1999/xlink" viewBox="0 0 621.98 397.08">
  <defs>
    <style>
      .cls-1 {
        fill: #f8931f;
      }

      .cls-2 {
        fill: #0070bc;
      }

      .cls-3 {
        fill: #fff;
      }

      .cls-4 {
        fill: #f68121;
      }

      .cls-5 {
        fill: #f21a27;
      }

      .cls-6 {
        fill: #fdee1f;
      }

      .cls-7 {
        fill: #8300e0;
      }

      .cls-8 {
        fill: #333;
      }

      .cls-9 {
        fill: #8cc63f;
      }

      .cls-10 {
        fill: #c9661c;
      }

      .cls-11 {
        fill: #29aae3;
      }

      .cls-12 {
        filter: url(#drop-shadow-1);
      }
    </style>
    <filter id="drop-shadow-1" filterUnits="userSpaceOnUse">
      <feOffset dx="4" dy="4"/>
      <feGaussianBlur result="blur" stdDeviation="2"/>
      <feFlood flood-color="#000" flood-opacity=".05"/>
      <feComposite in2="blur" operator="in"/>
      <feComposite in="SourceGraphic"/>
    </filter>
  </defs>
  <g id="Veda_Yogshala_Expanded" data-name="Veda Yogshala Expanded">
    <g id="Logo">
      <g id="logo" class="cls-12">
        <g>
          <path class="cls-4 lotus-leftmost" d="M194.24,214.59c52.79,44.66,115.91,47.37,116.74,47.4-1.25,1.15-121.05,111.33-262.02,.76,0,0,59.03-55.17,145.28-48.16Z"/>
          <path class="cls-3" d="M310.98,261.99h0s0,0,0,0h0s0,0,0,0Z"/>
          <path class="cls-10 lotus-leftmost" d="M310.98,261.99h0c-.83-.02-63.94-2.73-116.74-47.39,35.11,2.85,74.72,16,116.7,47.36,.02,.02,.02,.02,.03,.03Z"/>
          <path class="cls-4 lotus-left" d="M259.92,143.17c5.55,70.04,49.56,117.23,51.03,118.79-41.99-31.36-81.59-44.51-116.7-47.36-32.25-27.28-60.66-70.21-68.66-137.75,0,0,78.56,2.83,134.34,66.32Z"/>
          <path class="cls-3" d="M310.98,261.99h0s0,0,0,0h0s0,0,0,0Z"/>
          <path class="cls-4 lotus-rightmost" d="M573.02,262.75c-140.97,110.57-260.77,.4-262.02-.76,.83-.03,63.94-2.74,116.74-47.4,86.25-7.01,145.28,48.16,145.28,48.16Z"/>
          <path class="cls-10 lotus-rightmost" d="M427.74,214.59c-52.79,44.66-115.91,47.37-116.74,47.4h0c42-31.39,81.63-44.55,116.74-47.4Z"/>
          <path class="cls-4 lotus-right" d="M496.4,76.84c-8.01,67.54-36.41,110.47-68.66,137.75-35.12,2.85-74.74,16.01-116.74,47.39v-.02s0,0,0,0c29.34-40.33,42.22-78.28,45.48-112.14,55.94-69.96,139.92-72.99,139.92-72.99Z"/>
          <path class="cls-10" d="M310.98,261.99h0s-.02-.02-.03-.03c-1.47-1.56-45.48-48.75-51.03-118.79,23.79,27.07,43.44,65.19,51.07,118.82Z"/>
          <path class="cls-3" d="M310.98,261.99h0s0,0,0,0h0Z"/>
          <path class="cls-10" d="M356.48,149.83c-3.25,33.86-16.13,71.81-45.48,112.14,7.03-49.36,24.22-85.57,45.48-112.14Z"/>
          <path class="cls-4 lotus-middle" d="M356.48,149.83c-21.25,26.56-38.45,62.77-45.48,112.14,0,0,0,0,0,0v.02h0c-7.63-53.64-27.28-91.75-51.07-118.82-3.28-41.33,6.84-90.62,46.99-143.17,0,0,58.15,60.66,49.57,149.83Z"/>
        </g>
        <g>
          <path class="cls-8" d="M362.3,308.36c-3.73,1.57-7.27,3.16-10.88,4.55-7.18,2.77-14.63,4.7-22.27,5.4-5.6,.51-11.28,.16-16.93,.19-.94,0-1.88-.01-2.82,.04-8.84,.51-17.59,.13-26.29-1.88-9.43-2.18-18.25-5.82-26.86-10.11-8.81-4.39-17.73-8.57-26.47-13.11-12.59-6.55-24.99-13.44-35.82-22.77-3.44-2.97-6.6-6.18-8.79-10.24-3.69-6.86-1.43-12.24,4.1-16.14,7.17-5.05,15.35-6.08,23.77-5.37,16.7,1.4,31.91,7.49,46.46,15.41,5.25,2.86,10.25,6.16,15.37,9.26,.15,.09,.35,.1,.57,.16,.73-2.89,1.21-5.85,2.24-8.6,1.23-3.29,3-6.38,4.4-9.61,.47-1.08,.84-2.38,.7-3.51-.78-6.29-1.5-12.6-2.7-18.81-1-5.2-2.43-10.34-4-15.41-2.33-7.54-4.88-15.02-7.47-22.48-2.04-5.86-5.45-10.94-9.55-15.53-6.08-6.81-12.33-13.48-18.44-20.27-4.83-5.36-8.21-11.6-10.73-18.33-1.78-4.73-3.71-9.41-5.29-14.2-.86-2.61-1.24-5.41-1.62-8.15-.37-2.7,.85-4.78,3.1-6.25,7.01-4.58,13.94-9.31,21.07-13.7,13.84-8.51,27.85-16.75,41.68-25.26,5.85-3.6,9.42-9.14,11.92-15.46,2.62-6.62,3.02-13.7,4.58-20.54,.54-2.34,1.18-4.66,1.64-7.01,.36-1.83,1.77-1.34,2.81-1.3,.45,.02,1.14,.87,1.26,1.45,1.35,6.25,2.67,12.51,3.87,18.78,1.47,7.65,4.03,14.87,9.82,20.25,3.51,3.26,7.73,5.82,11.84,8.35,11.05,6.8,22.27,13.32,33.31,20.13,7.45,4.59,14.7,9.48,22.05,14.24,2.57,1.67,3.68,4.16,3.13,7.03-.76,3.96-1.71,7.92-3.04,11.71-1.81,5.18-3.96,10.24-6.13,15.28-2.67,6.22-6.89,11.4-11.37,16.38-6.07,6.75-12.17,13.49-18.21,20.26-.46,.52-.75,1.31-.85,2.01-1.16,7.87-3.69,15.34-6.19,22.85-2.53,7.61-5.08,15.25-6.97,23.03-1.46,6.01-1.68,12.3-2.89,18.39-.62,3.13,.39,5.39,1.92,7.88,2.81,4.57,4.44,9.61,5.14,14.94,.05,.35,.15,.7,.29,1.31,2.61-1.6,5.05-3.08,7.48-4.59,10.33-6.42,21.23-11.68,32.77-15.52,8.87-2.95,17.98-5.04,27.4-4.73,6.9,.23,13.53,1.68,19.17,6.16,6.21,4.93,6.52,11.43,1.55,18.19-4.32,5.87-9.99,10.26-15.89,14.35-10.8,7.5-22.35,13.72-34.09,19.58-3.72,1.85-7.44,3.72-11.08,5.54l-11.79,5.75Zm-53.45-247.55c-.58,.5-1.31,1.28-2.19,1.83-2.34,1.46-5.05,2.5-7.07,4.3-3.78,3.37-7.08,7.29-10.76,10.78-12.18,11.56-23.89,23.66-37.69,33.41-3.43,2.42-3.76,3.6-1.75,7.05,3.33,5.71,6.7,11.44,10.53,16.82,2.98,4.18,7.95,6.07,12.19,8.74,3.98,2.5,8.44,4.44,11.93,7.5,3.65,3.19,7.26,4.71,11.95,3.7,.12-.03,.29,.03,.37-.04,.61-.5,1.65-.95,1.72-1.53,.3-2.31,.38-4.67,.38-7,0-2.01-.55-3.82-2.22-5.22-.94-.79-1.79-1.83-2.34-2.93-1.99-4-3.99-8.01-5.67-12.14-1.25-3.08-2.11-6.33-2.93-9.55-.27-1.04-.29-2.62,.31-3.3,1.23-1.38,1.05-2.89,1.23-4.41,.3-2.58,.5-5.17,.88-7.74,.57-3.85,1.81-7.33,5.41-9.51,1.72-1.04,3.24-2.4,4.95-3.47,6.27-3.91,13.03-4.62,19.82-1.94,3.27,1.29,6.12,3.66,9.15,5.55,2.61,1.62,4.28,3.91,4.72,6.97,.57,3.88,1.04,7.77,1.56,11.66,.08,.61-.02,1.47,.34,1.79,1.94,1.72,1.57,3.91,.97,5.84-1.34,4.27-3.01,8.43-4.55,12.63-1.58,4.31-3.74,8.27-7.14,11.46-.34,.32-.53,.85-.7,1.31-1.22,3.34-1.15,6.73-.27,10.11,.14,.55,.92,1.22,1.5,1.32,3.63,.65,7.02,.34,9.5-2.92,.4-.53,1.02-.93,1.61-1.28,4.47-2.69,9.02-5.27,13.43-8.06,3.7-2.34,7.98-4.09,10.48-7.9,3.76-5.73,7.21-11.66,10.82-17.49,1.08-1.75,.77-3.27-.73-4.5-1.69-1.39-3.56-2.56-5.24-3.95-13.58-11.29-26.72-23.06-38.74-36.03-3.05-3.29-6.13-6.51-10.33-8.45-1.91-.88-3.59-2.24-5.43-3.41Z"/>
          <g>
            <circle class="cls-7" cx="309.99" cy="95.65" r="4.79"/>
            <circle class="cls-2" cx="309.99" cy="119.94" r="6.83"/>
            <circle class="cls-11" cx="309.99" cy="156.47" r="7.99"/>
            <circle class="cls-6" cx="309.99" cy="230.04" r="9.63"/>
            <circle class="cls-1" cx="309.99" cy="267.38" r="8.52"/>
            <circle class="cls-5" cx="309.99" cy="294.27" r="5.1"/>
            <circle class="cls-9" cx="309.99" cy="191.03" r="12.14"/>
          </g>
          <path class="cls-8" d="M471.29,324.69c.35,.1,.69,.19,1.04,.29,54.44,15.11,106.2,34.88,149.65,72.1-6.65-2.95-13.2-6.2-19.99-8.79-15.72-6-31.45-11.98-47.38-17.41-11.63-3.96-23.46-7.42-35.38-10.41-15.25-3.82-30.61-7.29-46.05-10.24-16.59-3.17-33.27-5.97-50.01-8.16-17.26-2.26-34.62-4.5-51.99-5.14-30.89-1.14-61.85-2.1-92.72-1.19-27.54,.81-55.08,3.62-82.48,6.75-19.4,2.22-38.7,5.78-57.79,9.94-22.03,4.8-44.09,9.93-65.56,16.74-21.66,6.87-42.61,15.97-63.86,24.13-2.91,1.12-5.75,2.46-8.79,3.29,46.13-38.76,100.94-58.75,158.55-73.01l9.55-2.12c86.89-18.01,173.84-19.29,260.68-4.88,0,0,26.84,3.91,42.51,8.1Z"/>
        </g>
      </g>
    </g>
  </g>
</svg>