<?xml version="1.0" encoding="UTF-8"?>
<svg id="Layer_2" data-name="Layer 2" xmlns="http://www.w3.org/2000/svg" viewBox="0 0 170.65 80.44">
  <defs>
    <style>
      .cls-1 {
        fill: #f68121;
        stroke: #f68121;
        stroke-miterlimit: 10;
        stroke-width: 2px;
      }
    </style>
  </defs>
  <g id="Veda_Yogshala" data-name="Veda Yogshala">
    <g>
      <path class="cls-1" d="M38.75,11.6c.95,.33,1.64,.95,2.07,1.85,.43,.9,.46,1.82,.11,2.75L24.81,61.22c-.57,1.59-1.71,2.39-3.42,2.39s-2.82-.8-3.39-2.39L1.86,16.2c-.33-.93-.29-1.84,.14-2.75,.43-.9,1.1-1.52,2.03-1.85,.95-.33,1.88-.29,2.78,.14,.9,.43,1.52,1.11,1.85,2.03l12.73,35.54L34.15,13.78c.33-.93,.95-1.6,1.85-2.03,.9-.43,1.82-.47,2.74-.14Z"/>
      <path class="cls-1" d="M80.38,37.87v.04c.38,.9,.37,1.82-.04,2.74-.38,.93-1.03,1.57-1.96,1.92l-20.17,8.09c-.43,.17-.87,.25-1.32,.25-1.64,0-2.76-.76-3.35-2.28-.38-.9-.37-1.82,.04-2.74,.38-.93,1.03-1.57,1.96-1.93l16.36-6.56c-2.38-2.99-5.44-4.49-9.2-4.49-3.26,0-6.02,1.15-8.31,3.46-2.31,2.28-3.46,5.04-3.46,8.27s1.15,6,3.46,8.3c2.28,2.28,5.05,3.42,8.31,3.42,3.8,0,6.88-1.51,9.23-4.53,.62-.78,1.43-1.24,2.42-1.35,.97-.12,1.85,.13,2.64,.75,.78,.59,1.25,1.39,1.39,2.39,.12,1-.13,1.89-.75,2.67-3.8,4.87-8.78,7.31-14.94,7.31-5.23,0-9.7-1.85-13.4-5.56s-5.56-8.17-5.56-13.4,1.85-9.7,5.56-13.4c3.71-3.68,8.17-5.53,13.4-5.53,3.87,0,7.44,1.11,10.69,3.32,3.26,2.23,5.58,5.17,6.99,8.8v.04Z"/>
      <path class="cls-1" d="M118.95,11.39c1,0,1.84,.36,2.53,1.07,.71,.69,1.07,1.53,1.07,2.53v29.66c0,5.23-1.85,9.7-5.56,13.4s-8.16,5.56-13.37,5.56-9.7-1.85-13.4-5.56-5.56-8.17-5.56-13.4,1.85-9.7,5.56-13.4c3.71-3.68,8.17-5.53,13.4-5.53,2.78,0,5.43,.58,7.95,1.75,.9,.43,1.53,1.1,1.89,2.03,.33,.93,.29,1.84-.14,2.74-.4,.9-1.08,1.53-2.03,1.89-.93,.33-1.84,.29-2.74-.14-1.57-.71-3.21-1.07-4.92-1.07-3.26,0-6.02,1.15-8.31,3.46-2.31,2.28-3.46,5.04-3.46,8.27s1.15,6,3.46,8.3c2.28,2.28,5.05,3.42,8.31,3.42s5.99-1.14,8.27-3.42c2.3-2.3,3.46-5.07,3.46-8.3V14.99c0-1,.34-1.84,1.03-2.53,.71-.71,1.57-1.07,2.57-1.07Z"/>
      <path class="cls-1" d="M147.01,25.72c5.2,0,9.66,1.84,13.37,5.53,3.71,3.71,5.56,8.17,5.56,13.4v15.33c0,1-.36,1.85-1.07,2.57-.69,.71-1.53,1.07-2.53,1.07s-1.85-.36-2.57-1.07c-.69-.71-1.03-1.57-1.03-2.57v-15.33c0-3.23-1.15-5.99-3.46-8.27-2.28-2.3-5.04-3.46-8.27-3.46s-6.02,1.15-8.31,3.46c-2.31,2.28-3.46,5.04-3.46,8.27s1.15,6,3.46,8.3c2.28,2.28,5.05,3.42,8.31,3.42,1.45-.02,2.95-.31,4.49-.86,1.24-.38,2.16-.47,2.78-.29,.95,.29,1.65,.87,2.1,1.75,.48,.88,.57,1.79,.29,2.75s-.87,1.66-1.75,2.14c-2.12,1.16-4.75,1.75-7.91,1.75-5.23,0-9.7-1.85-13.4-5.56s-5.56-8.17-5.56-13.4,1.85-9.7,5.56-13.4c3.71-3.68,8.17-5.53,13.4-5.53Z"/>
    </g>
  </g>
</svg>