<?xml version="1.0" encoding="UTF-8"?>
<svg id="Layer_2" data-name="Layer 2" xmlns="http://www.w3.org/2000/svg" viewBox="0 0 412.6 27.69">
  <defs>
    <style>
      .cls-1 {
        fill: gray;
      }
    </style>
  </defs>
  <g id="Yoga">
    <g>
      <path class="cls-1" d="M1.45,1.94c.54,0,1.01,.34,1.41,1.04l6.05,9.89L15,2.99c.44-.71,.91-1.04,1.48-1.04,.81,0,1.28,.54,1.28,1.21,0,.24-.07,.5-.24,.77l-7.3,11.64v8.91c0,.77-.64,1.41-1.41,1.41s-1.45-.64-1.45-1.41V15.56L.24,4.13c-.17-.24-.24-.5-.24-.81,0-.77,.61-1.38,1.45-1.38Z"/>
      <path class="cls-1" d="M29.43,22.59c-2.29-2.25-3.43-5.18-3.43-8.71s1.14-6.32,3.4-8.64c2.25-2.32,5.15-3.46,8.61-3.46s6.32,1.14,8.61,3.4c2.25,2.25,3.4,5.18,3.4,8.71s-1.14,6.36-3.43,8.64c-2.29,2.32-5.15,3.46-8.58,3.46s-6.32-1.14-8.58-3.4Zm2.15-15.47c-1.72,1.78-2.56,4.04-2.56,6.76s.87,4.91,2.59,6.69c1.72,1.82,3.87,2.72,6.39,2.72,2.66,0,4.81-.91,6.49-2.69,1.65-1.78,2.49-4.04,2.49-6.73s-.87-4.98-2.59-6.76c-1.71-1.78-3.87-2.66-6.39-2.66s-4.71,.88-6.42,2.66Z"/>
      <path class="cls-1" d="M65.58,7.05c-1.65,1.71-2.46,4-2.46,6.83s.84,5.11,2.49,6.83c1.65,1.71,3.8,2.59,6.49,2.59,2.25,0,4.81-.87,6.05-2.08v-4.84h-5.04c-.71,0-1.31-.64-1.31-1.34s.61-1.35,1.31-1.35h6.32c.77,0,1.41,.64,1.41,1.41v6.73c0,.64-.27,1.18-.81,1.58-2.12,1.61-5.31,2.59-8,2.59-3.67,0-6.56-1.11-8.71-3.29-2.15-2.19-3.23-5.15-3.23-8.81,0-3.46,1.08-6.32,3.19-8.64,2.12-2.32,4.91-3.46,8.37-3.46,2.49,0,4.64,.54,6.46,1.61,.47,.27,.71,.64,.71,1.11,0,.24-.07,.47-.2,.71-.24,.4-.61,.61-1.11,.61-.3,0-.57-.07-.87-.24-1.41-.74-2.96-1.11-4.64-1.11-2.66,0-4.78,.88-6.42,2.59Z"/>
      <path class="cls-1" d="M106.42,18.52h-10.73l-2.69,6.42c-.24,.64-.67,.94-1.28,.94-.84,0-1.35-.61-1.35-1.31,0-.13,.03-.34,.13-.61L99.52,3.09c.34-.77,.87-1.14,1.65-1.14s1.31,.37,1.61,1.14l8.98,20.78c.07,.2,.1,.4,.1,.57,0,.77-.54,1.45-1.38,1.45-.64,0-1.08-.3-1.35-.94l-2.72-6.42Zm-1.11-2.69l-4.24-10.06-4.24,10.06h8.48Z"/>
      <path class="cls-1" d="M153.88,7.83c.9,.87,1.35,2.01,1.35,3.45v.08c-.09,1.43-.62,2.55-1.61,3.35-.43,.35-.93,.62-1.51,.82,.9,1.19,1.29,2.62,1.17,4.29-.14,2.07-.99,3.86-2.53,5.37-1.7,1.66-3.84,2.5-6.42,2.5-2.44,0-4.55-.89-6.34-2.68-1.78-1.78-2.68-3.9-2.68-6.34,0-1.47,.32-2.84,.95-4.11,.62-1.26,1.49-2.3,2.59-3.12-.9-.56-1.61-1.3-2.15-2.23-.55-.96-.82-1.98-.82-3.04,0-1.71,.58-3.16,1.74-4.37,1.17-1.2,2.58-1.81,4.24-1.81,2.16,0,3.95,1,5.37,2.99,.2,.27,.27,.58,.21,.92-.05,.35-.22,.62-.51,.82-.27,.2-.59,.27-.94,.21-.34-.05-.61-.22-.8-.51-.92-1.29-2.03-1.94-3.33-1.94-.96,0-1.78,.36-2.46,1.08-.68,.71-1.02,1.58-1.02,2.59,0,.96,.35,1.82,1.05,2.56,.71,.74,1.52,1.12,2.43,1.12h.94c.33,0,.61,.11,.85,.33s.37,.49,.39,.82c.03,.32-.05,.61-.26,.87-.2,.25-.46,.41-.79,.46-1.5,.24-2.74,.96-3.71,2.15-.99,1.19-1.48,2.59-1.48,4.19,0,1.74,.65,3.26,1.95,4.57,1.3,1.3,2.82,1.95,4.57,1.95,1.88,0,3.44-.58,4.66-1.74,1.09-1.05,1.7-2.32,1.81-3.79,.05-.78-.07-1.48-.36-2.1-.48-1.03-1.38-1.63-2.69-1.81h-.02s-.04-.02-.05-.02c-1.11-.22-1.89-.29-2.35-.2-.04,.01-.09,.02-.13,.03-.74,.07-1.4,.36-1.95,.87-.59,.57-.89,1.25-.89,2.05,0,.6,.21,1.11,.62,1.53s.93,.62,1.53,.62,1.14-.2,1.63-.61c.48-.41,.72-.86,.72-1.36,0-.34,.12-.63,.36-.89,.25-.24,.55-.36,.89-.36s.65,.12,.89,.36c.24,.25,.36,.55,.36,.89,0,1.19-.48,2.23-1.45,3.12-.97,.9-2.11,1.35-3.4,1.35s-2.38-.45-3.28-1.36c-.91-.91-1.36-2-1.36-3.28,0-1.38,.49-2.59,1.46-3.63,.96-1.04,2.16-1.64,3.58-1.79,.78-.14,1.86-.08,3.24,.2,1.85,.29,3.15,.12,3.91-.49,.4-.33,.63-.84,.67-1.53,0-.71-.19-1.25-.57-1.63-.33-.32-.74-.48-1.25-.48-.42,0-.78,.12-1.1,.36-.42,.32-.62,.78-.62,1.4,0,.35-.12,.65-.36,.89-.25,.24-.55,.36-.89,.36s-.65-.12-.89-.36c-.24-.24-.36-.54-.36-.89,0-1.3,.45-2.36,1.35-3.17,.81-.72,1.77-1.08,2.87-1.08h1.76s.41,.39,1.23,1.18Z"/>
      <path class="cls-1" d="M188.5,4.8V24.48c0,.77-.64,1.41-1.41,1.41s-1.45-.64-1.45-1.41V4.8h-6.93c-.71,0-1.31-.64-1.31-1.35s.61-1.34,1.31-1.34h16.71c.71,0,1.31,.64,1.31,1.34s-.61,1.35-1.31,1.35h-6.93Z"/>
      <path class="cls-1" d="M222.23,25.89c-.54,0-1.01-.27-1.45-.81l-6.76-8.84h-3.83v8.24c0,.77-.64,1.41-1.41,1.41s-1.45-.64-1.45-1.41V3.52c0-.77,.64-1.41,1.41-1.41,2.39-.03,4-.07,4.91-.07,5.58,0,8.37,2.32,8.37,7,0,1.71-.5,3.16-1.48,4.34-1.01,1.18-2.22,1.95-3.63,2.32l6.25,7.9c.24,.3,.37,.64,.37,.98,0,.71-.54,1.31-1.31,1.31Zm-12.04-12.34h3.46c1.45,0,2.69-.4,3.77-1.24,1.04-.81,1.58-1.88,1.58-3.23,0-2.89-1.85-4.34-5.52-4.34-.71,0-1.82,.03-3.3,.07V13.54Z"/>
      <path class="cls-1" d="M248.03,18.52h-10.73l-2.69,6.42c-.24,.64-.67,.94-1.28,.94-.84,0-1.35-.61-1.35-1.31,0-.13,.03-.34,.13-.61l9.01-20.88c.34-.77,.87-1.14,1.65-1.14s1.31,.37,1.62,1.14l8.98,20.78c.07,.2,.1,.4,.1,.57,0,.77-.54,1.45-1.38,1.45-.64,0-1.08-.3-1.35-.94l-2.72-6.42Zm-1.11-2.69l-4.24-10.06-4.24,10.06h8.47Z"/>
      <path class="cls-1" d="M264.51,3.52c0-.77,.61-1.41,1.41-1.41,3.3-.07,4.98-.1,5.01-.1,9.42,0,13.22,5.38,13.22,11.57,0,3.53-1.18,6.42-3.5,8.71-2.35,2.29-5.68,3.43-9.99,3.43-.74,0-2.32-.03-4.74-.07-.77,0-1.41-.64-1.41-1.41V3.52Zm2.86,19.44c2.05,.03,3.2,.07,3.4,.07,3.26,0,5.82-.88,7.63-2.62,1.82-1.72,2.72-4,2.72-6.83,0-2.66-.87-4.78-2.66-6.42-1.78-1.65-4.3-2.46-7.6-2.46-1.14,0-2.59,.1-3.5,.1V22.96Z"/>
      <path class="cls-1" d="M296.76,3.32c0-.77,.64-1.38,1.45-1.38s1.41,.6,1.41,1.38V24.48c0,.77-.64,1.41-1.41,1.41s-1.45-.64-1.45-1.41V3.32Z"/>
      <path class="cls-1" d="M321.99,4.8V24.48c0,.77-.64,1.41-1.41,1.41s-1.45-.64-1.45-1.41V4.8h-6.93c-.71,0-1.31-.64-1.31-1.35s.61-1.34,1.31-1.34h16.71c.71,0,1.31,.64,1.31,1.34s-.61,1.35-1.31,1.35h-6.93Z"/>
      <path class="cls-1" d="M341.5,3.32c0-.77,.64-1.38,1.45-1.38s1.41,.6,1.41,1.38V24.48c0,.77-.64,1.41-1.41,1.41s-1.45-.64-1.45-1.41V3.32Z"/>
      <path class="cls-1" d="M360.4,22.59c-2.29-2.25-3.43-5.18-3.43-8.71s1.14-6.32,3.4-8.64c2.25-2.32,5.15-3.46,8.61-3.46s6.32,1.14,8.61,3.4c2.25,2.25,3.4,5.18,3.4,8.71s-1.14,6.36-3.43,8.64c-2.29,2.32-5.15,3.46-8.58,3.46s-6.32-1.14-8.58-3.4Zm2.15-15.47c-1.72,1.78-2.56,4.04-2.56,6.76s.88,4.91,2.59,6.69c1.71,1.82,3.87,2.72,6.39,2.72,2.66,0,4.81-.91,6.49-2.69,1.65-1.78,2.49-4.04,2.49-6.73s-.88-4.98-2.59-6.76-3.87-2.66-6.39-2.66-4.71,.88-6.42,2.66Z"/>
      <path class="cls-1" d="M409.91,20.67V3.25c0-.71,.64-1.31,1.34-1.31s1.35,.6,1.35,1.31V24.44c0,.84-.5,1.45-1.21,1.45-.57,0-1.14-.34-1.71-1.04l-14.06-17.72V24.58c0,.71-.64,1.31-1.35,1.31s-1.34-.61-1.34-1.31V3.52c0-.91,.47-1.58,1.31-1.58,.57,0,1.18,.4,1.82,1.21l13.86,17.52Z"/>
    </g>
  </g>
</svg>