<?xml version="1.0" encoding="UTF-8"?>
<svg id="Layer_2" data-name="Layer 2" xmlns="http://www.w3.org/2000/svg" viewBox="0 0 332.54 80.36">
  <defs>
    <style>
      .cls-1 {
        fill: #333;
        stroke: #333;
        stroke-miterlimit: 10;
        stroke-width: 3px;
      }
    </style>
  </defs>
  <g id="Yogshala">
    <g>
      <path class="cls-1" d="M35.43,11.75c.98,0,1.82,.35,2.5,1.05,.7,.68,1.05,1.51,1.05,2.5v8.79c0,5.04-1.37,9.49-4.11,13.36-2.67,3.82-6.07,6.22-10.2,7.21v15.01c0,.98-.34,1.83-1.02,2.53-.7,.7-1.55,1.05-2.53,1.05s-1.83-.35-2.53-1.05c-.68-.7-1.02-1.55-1.02-2.53v-14.98c-3.63-.87-6.74-2.87-9.32-6.01-3.33-4.05-4.99-8.92-4.99-14.59V15.3c0-.98,.35-1.82,1.05-2.5,.68-.7,1.51-1.05,2.5-1.05s1.83,.35,2.53,1.05,1.02,1.51,1.02,2.5v8.79c0,3.96,1.14,7.32,3.41,10.09,2.06,2.53,4.51,3.8,7.35,3.8s5.48-1.36,7.59-4.08,3.16-5.99,3.16-9.81V15.3c0-.98,.34-1.82,1.02-2.5s1.55-1.05,2.53-1.05Z"/>
      <path class="cls-1" d="M65.8,25.88c5.13,0,9.53,1.82,13.18,5.45,3.66,3.66,5.48,8.06,5.48,13.22s-1.83,9.56-5.48,13.22-8.05,5.48-13.18,5.48-9.56-1.83-13.22-5.48-5.48-8.06-5.48-13.22,1.83-9.56,5.48-13.22c3.66-3.63,8.06-5.45,13.22-5.45Zm0,30.23c3.19,0,5.91-1.12,8.16-3.38s3.41-5,3.41-8.19-1.14-5.91-3.41-8.16c-2.25-2.27-4.97-3.41-8.16-3.41s-5.94,1.14-8.19,3.41c-2.27,2.25-3.41,4.97-3.41,8.16s1.14,5.92,3.41,8.19,4.98,3.38,8.19,3.38Z"/>
      <path class="cls-1" d="M111.28,25.85c5.13,0,9.53,1.82,13.18,5.45,3.66,3.66,5.48,8.06,5.48,13.22v15.12c0,5.16-1.83,9.56-5.48,13.22s-8.05,5.48-13.18,5.48-9.49-1.79-13.15-5.38c-.7-.68-1.05-1.51-1.05-2.5s.34-1.83,1.02-2.53c.7-.7,1.55-1.05,2.53-1.05,.98-.02,1.82,.32,2.5,1.02,2.27,2.23,4.99,3.34,8.16,3.34s5.91-1.14,8.16-3.41c2.27-2.25,3.41-4.98,3.41-8.19v-15.12c0-3.19-1.14-5.91-3.41-8.16-2.25-2.27-4.97-3.41-8.16-3.41s-5.94,1.14-8.19,3.41c-2.27,2.25-3.41,4.97-3.41,8.16s1.14,5.92,3.41,8.19,4.98,3.38,8.19,3.38c1.69,0,3.28-.34,4.78-1.02,.91-.42,1.83-.46,2.74-.11,.91,.33,1.58,.94,2,1.83,.4,.91,.42,1.83,.07,2.74-.33,.91-.94,1.58-1.83,2-2.46,1.12-5.05,1.69-7.77,1.69-5.16,0-9.56-1.83-13.22-5.48s-5.48-8.06-5.48-13.22,1.83-9.56,5.48-13.22c3.66-3.63,8.06-5.45,13.22-5.45Z"/>
      <path class="cls-1" d="M162.6,42.93c2.04,2.27,3.06,5.03,3.06,8.26s-1.01,5.92-3.02,8.19c-2.27,2.58-5.27,3.87-9,3.87h-10.62c-.98,0-1.82-.35-2.5-1.05-.7-.68-1.05-1.51-1.05-2.5s.35-1.83,1.05-2.53c.68-.7,1.51-1.05,2.5-1.05h10.62c1.59,0,2.82-.48,3.69-1.44,.8-.91,1.2-2.07,1.2-3.48,0-.96-.22-1.85-.67-2.67-.8-1.52-3.55-2.29-8.26-2.29-3.09,0-5.6-1.08-7.52-3.23-1.73-1.95-2.6-4.25-2.6-6.93s.84-4.99,2.53-6.89c1.92-2.18,4.45-3.27,7.59-3.27h10.34c.96,0,1.79,.34,2.5,1.02,.7,.7,1.05,1.55,1.05,2.53s-.35,1.82-1.05,2.5c-.7,.7-1.54,1.05-2.5,1.05h-10.34c-.98,0-1.73,.29-2.25,.88-.49,.56-.74,1.29-.74,2.18,0,2.04,1,3.06,2.99,3.06,6.42,0,10.76,1.27,13.01,3.8Z"/>
      <path class="cls-1" d="M192.62,25.88c4.8,0,8.91,1.82,12.3,5.45,3.42,3.66,5.13,8.06,5.13,13.22v15.12c0,.98-.35,1.83-1.05,2.53-.68,.7-1.51,1.05-2.5,1.05s-1.83-.35-2.53-1.05-1.05-1.55-1.05-2.53v-15.12c0-3.19-1.01-5.91-3.02-8.16-2.02-2.27-4.44-3.41-7.28-3.41s-5.26,1.12-7.28,3.38c-2.04,2.27-3.06,5-3.06,8.19v15.12c0,.98-.34,1.83-1.02,2.53-.7,.7-1.55,1.05-2.53,1.05s-1.82-.35-2.5-1.05c-.7-.7-1.05-1.55-1.05-2.53V15.3c0-.98,.35-1.82,1.05-2.5,.68-.7,1.51-1.05,2.5-1.05s1.83,.35,2.53,1.05,1.02,1.51,1.02,2.5v14.2c3.07-2.41,6.52-3.62,10.34-3.62Z"/>
      <path class="cls-1" d="M237.23,25.88c5.13,0,9.53,1.82,13.18,5.45,3.66,3.66,5.48,8.06,5.48,13.22v15.12c0,.98-.35,1.83-1.05,2.53-.68,.7-1.51,1.05-2.5,1.05s-1.83-.35-2.53-1.05c-.68-.7-1.02-1.55-1.02-2.53v-15.12c0-3.19-1.14-5.91-3.41-8.16-2.25-2.27-4.97-3.41-8.16-3.41s-5.94,1.14-8.19,3.41c-2.27,2.25-3.41,4.97-3.41,8.16s1.14,5.92,3.41,8.19,4.98,3.38,8.19,3.38c1.43-.02,2.91-.3,4.43-.84,1.22-.38,2.13-.47,2.74-.28,.94,.28,1.63,.86,2.07,1.72,.47,.87,.56,1.77,.28,2.71s-.86,1.64-1.72,2.11c-2.09,1.15-4.69,1.72-7.8,1.72-5.16,0-9.56-1.83-13.22-5.48s-5.48-8.06-5.48-13.22,1.83-9.56,5.48-13.22c3.66-3.63,8.06-5.45,13.22-5.45Z"/>
      <path class="cls-1" d="M271.78,11.75c.98,0,1.83,.35,2.53,1.05s1.02,1.51,1.02,2.5V59.67c0,.98-.34,1.83-1.02,2.53-.7,.7-1.55,1.05-2.53,1.05s-1.82-.35-2.5-1.05c-.7-.7-1.05-1.55-1.05-2.53V15.3c0-.98,.35-1.82,1.05-2.5,.68-.7,1.51-1.05,2.5-1.05Z"/>
      <path class="cls-1" d="M304.61,25.88c5.13,0,9.53,1.82,13.18,5.45,3.66,3.66,5.48,8.06,5.48,13.22v15.12c0,.98-.35,1.83-1.05,2.53-.68,.7-1.51,1.05-2.5,1.05s-1.83-.35-2.53-1.05c-.68-.7-1.02-1.55-1.02-2.53v-15.12c0-3.19-1.14-5.91-3.41-8.16-2.25-2.27-4.97-3.41-8.16-3.41s-5.94,1.14-8.19,3.41c-2.27,2.25-3.41,4.97-3.41,8.16s1.14,5.92,3.41,8.19,4.98,3.38,8.19,3.38c1.43-.02,2.91-.3,4.43-.84,1.22-.38,2.13-.47,2.74-.28,.94,.28,1.63,.86,2.07,1.72,.47,.87,.56,1.77,.28,2.71s-.86,1.64-1.72,2.11c-2.09,1.15-4.69,1.72-7.8,1.72-5.16,0-9.56-1.83-13.22-5.48s-5.48-8.06-5.48-13.22,1.83-9.56,5.48-13.22c3.66-3.63,8.06-5.45,13.22-5.45Z"/>
    </g>
  </g>
</svg>